<svg width="400" height="300" viewBox="0 0 400 300" xmlns="http://www.w3.org/2000/svg">
  <defs>
    <linearGradient id="portfolioBg" x1="0%" y1="0%" x2="100%" y2="100%">
      <stop offset="0%" style="stop-color:#a855f7;stop-opacity:1" />
      <stop offset="100%" style="stop-color:#ec4899;stop-opacity:1" />
    </linearGradient>
  </defs>
  
  <!-- Background -->
  <rect width="400" height="300" fill="url(#portfolioBg)"/>
  
  <!-- Browser Window -->
  <rect x="50" y="40" width="300" height="220" rx="8" fill="white" opacity="0.95"/>
  
  <!-- Browser Header -->
  <rect x="50" y="40" width="300" height="30" rx="8" fill="#f8fafc"/>
  <circle cx="65" cy="55" r="4" fill="#ef4444"/>
  <circle cx="80" cy="55" r="4" fill="#f59e0b"/>
  <circle cx="95" cy="55" r="4" fill="#10b981"/>
  
  <!-- Navigation -->
  <rect x="60" y="80" width="280" height="20" rx="4" fill="#f1f5f9"/>
  <rect x="70" y="85" width="40" height="10" rx="2" fill="#a855f7"/>
  <rect x="120" y="85" width="30" height="10" rx="2" fill="#6b7280"/>
  <rect x="160" y="85" width="35" height="10" rx="2" fill="#6b7280"/>
  <rect x="205" y="85" width="40" height="10" rx="2" fill="#6b7280"/>
  
  <!-- Hero Section -->
  <rect x="60" y="110" width="280" height="60" rx="6" fill="#faf5ff"/>
  <circle cx="120" cy="140" r="15" fill="#a855f7" opacity="0.3"/>
  <rect x="150" y="125" width="80" height="8" rx="4" fill="#a855f7"/>
  <rect x="150" y="140" width="120" height="6" rx="3" fill="#d1d5db"/>
  <rect x="150" y="150" width="100" height="6" rx="3" fill="#d1d5db"/>
  
  <!-- Project Grid -->
  <rect x="60" y="180" width="85" height="60" rx="4" fill="#f3e8ff"/>
  <rect x="155" y="180" width="85" height="60" rx="4" fill="#fef3c7"/>
  <rect x="250" y="180" width="90" height="60" rx="4" fill="#ecfdf5"/>
  
  <!-- Code Icon -->
  <g transform="translate(180, 130)">
    <path d="M8 3l4 4-4 4M16 11l-4-4 4-4" stroke="#a855f7" stroke-width="2" fill="none" stroke-linecap="round" stroke-linejoin="round"/>
  </g>
  
  <!-- Title -->
  <text x="200" y="285" text-anchor="middle" font-family="Arial, sans-serif" font-size="18" font-weight="bold" fill="white">Portfolio Website</text>
</svg>